<?xml version="1.0" encoding="UTF-8" standalone="no"?>
<!DOCTYPE svg PUBLIC "-//W3C//DTD SVG 1.1//EN"
 "http://www.w3.org/Graphics/SVG/1.1/DTD/svg11.dtd">
<!-- Generated by graphviz version 2.44.0 (20200408.0750)
 -->
<!-- Pages: 1 -->
<svg width="1062pt" height="620pt"
 viewBox="0.00 0.00 1061.65 620.00" xmlns="http://www.w3.org/2000/svg" xmlns:xlink="http://www.w3.org/1999/xlink">
<g id="graph0" class="graph" transform="scale(1 1) rotate(0) translate(4 616)">
<polygon fill="white" stroke="transparent" points="-4,4 -4,-616 1057.65,-616 1057.65,4 -4,4"/>
<!-- [root] azurerm_container_registry.acr -->
<g id="node1" class="node">
<title>[root] azurerm_container_registry.acr</title>
<polygon fill="none" stroke="black" points="372.11,-468 186.11,-468 186.11,-432 372.11,-432 372.11,-468"/>
<text text-anchor="middle" x="279.11" y="-446.3" font-family="Times,serif" font-size="14.00">azurerm_container_registry.acr</text>
</g>
<!-- [root] azurerm_resource_group.resource_grp -->
<g id="node3" class="node">
<title>[root] azurerm_resource_group.resource_grp</title>
<polygon fill="none" stroke="black" points="309.61,-108 82.61,-108 82.61,-72 309.61,-72 309.61,-108"/>
<text text-anchor="middle" x="196.11" y="-86.3" font-family="Times,serif" font-size="14.00">azurerm_resource_group.resource_grp</text>
</g>
<!-- [root] azurerm_container_registry.acr&#45;&gt;[root] azurerm_resource_group.resource_grp -->
<g id="edge1" class="edge">
<title>[root] azurerm_container_registry.acr&#45;&gt;[root] azurerm_resource_group.resource_grp</title>
<path fill="none" stroke="black" d="M260.69,-431.64C236.23,-406.62 196.11,-357.83 196.11,-307 196.11,-307 196.11,-307 196.11,-233 196.11,-193 196.11,-146.65 196.11,-118.08"/>
<polygon fill="black" stroke="black" points="199.61,-118.05 196.11,-108.05 192.61,-118.05 199.61,-118.05"/>
</g>
<!-- [root] azurerm_kubernetes_cluster.tbs_cluster -->
<g id="node2" class="node">
<title>[root] azurerm_kubernetes_cluster.tbs_cluster</title>
<polygon fill="none" stroke="black" points="610.61,-180 379.61,-180 379.61,-144 610.61,-144 610.61,-180"/>
<text text-anchor="middle" x="495.11" y="-158.3" font-family="Times,serif" font-size="14.00">azurerm_kubernetes_cluster.tbs_cluster</text>
</g>
<!-- [root] azurerm_kubernetes_cluster.tbs_cluster&#45;&gt;[root] azurerm_resource_group.resource_grp -->
<g id="edge2" class="edge">
<title>[root] azurerm_kubernetes_cluster.tbs_cluster&#45;&gt;[root] azurerm_resource_group.resource_grp</title>
<path fill="none" stroke="black" d="M422.35,-143.97C378.94,-133.8 323.7,-120.87 278.67,-110.33"/>
<polygon fill="black" stroke="black" points="279.47,-106.92 268.94,-108.05 277.87,-113.74 279.47,-106.92"/>
</g>
<!-- [root] var.cluster_name -->
<g id="node13" class="node">
<title>[root] var.cluster_name</title>
<polygon fill="none" stroke="black" points="533.11,-108 429.11,-108 429.11,-72 539.11,-72 539.11,-102 533.11,-108"/>
<polyline fill="none" stroke="black" points="533.11,-108 533.11,-102 "/>
<polyline fill="none" stroke="black" points="539.11,-102 533.11,-102 "/>
<text text-anchor="middle" x="484.11" y="-86.3" font-family="Times,serif" font-size="14.00">var.cluster_name</text>
</g>
<!-- [root] azurerm_kubernetes_cluster.tbs_cluster&#45;&gt;[root] var.cluster_name -->
<g id="edge3" class="edge">
<title>[root] azurerm_kubernetes_cluster.tbs_cluster&#45;&gt;[root] var.cluster_name</title>
<path fill="none" stroke="black" d="M492.39,-143.7C491.18,-135.98 489.72,-126.71 488.37,-118.11"/>
<polygon fill="black" stroke="black" points="491.81,-117.44 486.8,-108.1 484.89,-118.53 491.81,-117.44"/>
</g>
<!-- [root] var.dns_prefix -->
<g id="node14" class="node">
<title>[root] var.dns_prefix</title>
<polygon fill="none" stroke="black" points="645.11,-108 557.11,-108 557.11,-72 651.11,-72 651.11,-102 645.11,-108"/>
<polyline fill="none" stroke="black" points="645.11,-108 645.11,-102 "/>
<polyline fill="none" stroke="black" points="651.11,-102 645.11,-102 "/>
<text text-anchor="middle" x="604.11" y="-86.3" font-family="Times,serif" font-size="14.00">var.dns_prefix</text>
</g>
<!-- [root] azurerm_kubernetes_cluster.tbs_cluster&#45;&gt;[root] var.dns_prefix -->
<g id="edge4" class="edge">
<title>[root] azurerm_kubernetes_cluster.tbs_cluster&#45;&gt;[root] var.dns_prefix</title>
<path fill="none" stroke="black" d="M521.77,-143.88C535.89,-134.81 553.42,-123.55 568.67,-113.76"/>
<polygon fill="black" stroke="black" points="570.82,-116.54 577.34,-108.19 567.03,-110.65 570.82,-116.54"/>
</g>
<!-- [root] var.environment_name -->
<g id="node15" class="node">
<title>[root] var.environment_name</title>
<polygon fill="none" stroke="black" points="806.61,-108 669.61,-108 669.61,-72 812.61,-72 812.61,-102 806.61,-108"/>
<polyline fill="none" stroke="black" points="806.61,-108 806.61,-102 "/>
<polyline fill="none" stroke="black" points="812.61,-102 806.61,-102 "/>
<text text-anchor="middle" x="741.11" y="-86.3" font-family="Times,serif" font-size="14.00">var.environment_name</text>
</g>
<!-- [root] azurerm_kubernetes_cluster.tbs_cluster&#45;&gt;[root] var.environment_name -->
<g id="edge5" class="edge">
<title>[root] azurerm_kubernetes_cluster.tbs_cluster&#45;&gt;[root] var.environment_name</title>
<path fill="none" stroke="black" d="M554.97,-143.97C590.09,-133.97 634.63,-121.3 671.34,-110.85"/>
<polygon fill="black" stroke="black" points="672.31,-114.21 680.98,-108.11 670.4,-107.48 672.31,-114.21"/>
</g>
<!-- [root] var.nodepool_name -->
<g id="node16" class="node">
<title>[root] var.nodepool_name</title>
<polygon fill="none" stroke="black" points="949.11,-108 831.11,-108 831.11,-72 955.11,-72 955.11,-102 949.11,-108"/>
<polyline fill="none" stroke="black" points="949.11,-108 949.11,-102 "/>
<polyline fill="none" stroke="black" points="955.11,-102 949.11,-102 "/>
<text text-anchor="middle" x="893.11" y="-86.3" font-family="Times,serif" font-size="14.00">var.nodepool_name</text>
</g>
<!-- [root] azurerm_kubernetes_cluster.tbs_cluster&#45;&gt;[root] var.nodepool_name -->
<g id="edge6" class="edge">
<title>[root] azurerm_kubernetes_cluster.tbs_cluster&#45;&gt;[root] var.nodepool_name</title>
<path fill="none" stroke="black" d="M610.88,-144.22C670.66,-135.06 744.95,-122.92 820.54,-108.04"/>
<polygon fill="black" stroke="black" points="821.6,-111.39 830.73,-106.01 820.24,-104.53 821.6,-111.39"/>
</g>
<!-- [root] var.vm_size -->
<g id="node18" class="node">
<title>[root] var.vm_size</title>
<polygon fill="none" stroke="black" points="404.61,-108 327.61,-108 327.61,-72 410.61,-72 410.61,-102 404.61,-108"/>
<polyline fill="none" stroke="black" points="404.61,-108 404.61,-102 "/>
<polyline fill="none" stroke="black" points="410.61,-102 404.61,-102 "/>
<text text-anchor="middle" x="369.11" y="-86.3" font-family="Times,serif" font-size="14.00">var.vm_size</text>
</g>
<!-- [root] azurerm_kubernetes_cluster.tbs_cluster&#45;&gt;[root] var.vm_size -->
<g id="edge7" class="edge">
<title>[root] azurerm_kubernetes_cluster.tbs_cluster&#45;&gt;[root] var.vm_size</title>
<path fill="none" stroke="black" d="M464.28,-143.88C447.66,-134.64 426.94,-123.13 409.09,-113.21"/>
<polygon fill="black" stroke="black" points="410.49,-109.99 400.05,-108.19 407.09,-116.11 410.49,-109.99"/>
</g>
<!-- [root] provider.azurerm -->
<g id="node10" class="node">
<title>[root] provider.azurerm</title>
<polygon fill="none" stroke="black" points="101.11,-36 -0.11,-18 101.11,0 202.32,-18 101.11,-36"/>
<text text-anchor="middle" x="101.11" y="-14.3" font-family="Times,serif" font-size="14.00">provider.azurerm</text>
</g>
<!-- [root] azurerm_resource_group.resource_grp&#45;&gt;[root] provider.azurerm -->
<g id="edge8" class="edge">
<title>[root] azurerm_resource_group.resource_grp&#45;&gt;[root] provider.azurerm</title>
<path fill="none" stroke="black" d="M172.62,-71.7C159.16,-61.77 142.19,-49.27 128.17,-38.94"/>
<polygon fill="black" stroke="black" points="130,-35.94 119.87,-32.82 125.84,-41.57 130,-35.94"/>
</g>
<!-- [root] var.resource_grp_name -->
<g id="node17" class="node">
<title>[root] var.resource_grp_name</title>
<polygon fill="none" stroke="black" points="358.11,-36 220.11,-36 220.11,0 364.11,0 364.11,-30 358.11,-36"/>
<polyline fill="none" stroke="black" points="358.11,-36 358.11,-30 "/>
<polyline fill="none" stroke="black" points="364.11,-30 358.11,-30 "/>
<text text-anchor="middle" x="292.11" y="-14.3" font-family="Times,serif" font-size="14.00">var.resource_grp_name</text>
</g>
<!-- [root] azurerm_resource_group.resource_grp&#45;&gt;[root] var.resource_grp_name -->
<g id="edge9" class="edge">
<title>[root] azurerm_resource_group.resource_grp&#45;&gt;[root] var.resource_grp_name</title>
<path fill="none" stroke="black" d="M219.84,-71.7C232.04,-62.8 247.09,-51.82 260.29,-42.2"/>
<polygon fill="black" stroke="black" points="262.63,-44.82 268.65,-36.1 258.51,-39.17 262.63,-44.82"/>
</g>
<!-- [root] kubernetes_pod.nginx -->
<g id="node4" class="node">
<title>[root] kubernetes_pod.nginx</title>
<polygon fill="none" stroke="black" points="807.61,-324 670.61,-324 670.61,-288 807.61,-288 807.61,-324"/>
<text text-anchor="middle" x="739.11" y="-302.3" font-family="Times,serif" font-size="14.00">kubernetes_pod.nginx</text>
</g>
<!-- [root] local_file.kubeconfig -->
<g id="node6" class="node">
<title>[root] local_file.kubeconfig</title>
<polygon fill="none" stroke="black" points="922.61,-252 791.61,-252 791.61,-216 922.61,-216 922.61,-252"/>
<text text-anchor="middle" x="857.11" y="-230.3" font-family="Times,serif" font-size="14.00">local_file.kubeconfig</text>
</g>
<!-- [root] kubernetes_pod.nginx&#45;&gt;[root] local_file.kubeconfig -->
<g id="edge10" class="edge">
<title>[root] kubernetes_pod.nginx&#45;&gt;[root] local_file.kubeconfig</title>
<path fill="none" stroke="black" d="M767.97,-287.88C783.4,-278.72 802.59,-267.34 819.2,-257.48"/>
<polygon fill="black" stroke="black" points="821.32,-260.3 828.13,-252.19 817.74,-254.28 821.32,-260.3"/>
</g>
<!-- [root] provider.kubernetes -->
<g id="node11" class="node">
<title>[root] provider.kubernetes</title>
<polygon fill="none" stroke="black" points="660.11,-252 546.16,-234 660.11,-216 774.06,-234 660.11,-252"/>
<text text-anchor="middle" x="660.11" y="-230.3" font-family="Times,serif" font-size="14.00">provider.kubernetes</text>
</g>
<!-- [root] kubernetes_pod.nginx&#45;&gt;[root] provider.kubernetes -->
<g id="edge11" class="edge">
<title>[root] kubernetes_pod.nginx&#45;&gt;[root] provider.kubernetes</title>
<path fill="none" stroke="black" d="M719.58,-287.7C708.81,-278.16 695.36,-266.24 683.97,-256.15"/>
<polygon fill="black" stroke="black" points="686.29,-253.52 676.48,-249.51 681.64,-258.76 686.29,-253.52"/>
</g>
<!-- [root] kubernetes_service.nginx -->
<g id="node5" class="node">
<title>[root] kubernetes_service.nginx</title>
<polygon fill="none" stroke="black" points="816.61,-396 661.61,-396 661.61,-360 816.61,-360 816.61,-396"/>
<text text-anchor="middle" x="739.11" y="-374.3" font-family="Times,serif" font-size="14.00">kubernetes_service.nginx</text>
</g>
<!-- [root] kubernetes_service.nginx&#45;&gt;[root] kubernetes_pod.nginx -->
<g id="edge12" class="edge">
<title>[root] kubernetes_service.nginx&#45;&gt;[root] kubernetes_pod.nginx</title>
<path fill="none" stroke="black" d="M739.11,-359.7C739.11,-351.98 739.11,-342.71 739.11,-334.11"/>
<polygon fill="black" stroke="black" points="742.61,-334.1 739.11,-324.1 735.61,-334.1 742.61,-334.1"/>
</g>
<!-- [root] local_file.kubeconfig&#45;&gt;[root] azurerm_kubernetes_cluster.tbs_cluster -->
<g id="edge13" class="edge">
<title>[root] local_file.kubeconfig&#45;&gt;[root] azurerm_kubernetes_cluster.tbs_cluster</title>
<path fill="none" stroke="black" d="M791.37,-217.74C788.58,-217.14 785.82,-216.56 783.11,-216 723.93,-203.76 657.63,-191.47 603.57,-181.8"/>
<polygon fill="black" stroke="black" points="604.08,-178.34 593.62,-180.03 602.85,-185.23 604.08,-178.34"/>
</g>
<!-- [root] provider.local -->
<g id="node12" class="node">
<title>[root] provider.local</title>
<polygon fill="none" stroke="black" points="857.11,-180 772.48,-162 857.11,-144 941.73,-162 857.11,-180"/>
<text text-anchor="middle" x="857.11" y="-158.3" font-family="Times,serif" font-size="14.00">provider.local</text>
</g>
<!-- [root] local_file.kubeconfig&#45;&gt;[root] provider.local -->
<g id="edge14" class="edge">
<title>[root] local_file.kubeconfig&#45;&gt;[root] provider.local</title>
<path fill="none" stroke="black" d="M857.11,-215.7C857.11,-207.98 857.11,-198.71 857.11,-190.11"/>
<polygon fill="black" stroke="black" points="860.61,-190.1 857.11,-180.1 853.61,-190.1 860.61,-190.1"/>
</g>
<!-- [root] output.client_certificate -->
<g id="node7" class="node">
<title>[root] output.client_certificate</title>
<polygon fill="none" stroke="black" points="470.61,-324 331.61,-324 331.61,-288 476.61,-288 476.61,-318 470.61,-324"/>
<polyline fill="none" stroke="black" points="470.61,-324 470.61,-318 "/>
<polyline fill="none" stroke="black" points="476.61,-318 470.61,-318 "/>
<text text-anchor="middle" x="404.11" y="-302.3" font-family="Times,serif" font-size="14.00">output.client_certificate</text>
</g>
<!-- [root] output.client_certificate&#45;&gt;[root] azurerm_kubernetes_cluster.tbs_cluster -->
<g id="edge19" class="edge">
<title>[root] output.client_certificate&#45;&gt;[root] azurerm_kubernetes_cluster.tbs_cluster</title>
<path fill="none" stroke="black" d="M415.08,-287.87C430.87,-263.24 460.09,-217.64 478.52,-188.88"/>
<polygon fill="black" stroke="black" points="481.64,-190.5 484.09,-180.19 475.75,-186.72 481.64,-190.5"/>
</g>
<!-- [root] output.kube_config -->
<g id="node8" class="node">
<title>[root] output.kube_config</title>
<polygon fill="none" stroke="black" points="556.11,-396 440.11,-396 440.11,-360 562.11,-360 562.11,-390 556.11,-396"/>
<polyline fill="none" stroke="black" points="556.11,-396 556.11,-390 "/>
<polyline fill="none" stroke="black" points="562.11,-390 556.11,-390 "/>
<text text-anchor="middle" x="501.11" y="-374.3" font-family="Times,serif" font-size="14.00">output.kube_config</text>
</g>
<!-- [root] output.kube_config&#45;&gt;[root] azurerm_kubernetes_cluster.tbs_cluster -->
<g id="edge20" class="edge">
<title>[root] output.kube_config&#45;&gt;[root] azurerm_kubernetes_cluster.tbs_cluster</title>
<path fill="none" stroke="black" d="M500.63,-359.85C499.59,-322.83 497.13,-235.18 495.88,-190.39"/>
<polygon fill="black" stroke="black" points="499.37,-190.13 495.59,-180.23 492.37,-190.33 499.37,-190.13"/>
</g>
<!-- [root] output.lb_ip -->
<g id="node9" class="node">
<title>[root] output.lb_ip</title>
<polygon fill="none" stroke="black" points="659.61,-468 582.61,-468 582.61,-432 665.61,-432 665.61,-462 659.61,-468"/>
<polyline fill="none" stroke="black" points="659.61,-468 659.61,-462 "/>
<polyline fill="none" stroke="black" points="665.61,-462 659.61,-462 "/>
<text text-anchor="middle" x="624.11" y="-446.3" font-family="Times,serif" font-size="14.00">output.lb_ip</text>
</g>
<!-- [root] output.lb_ip&#45;&gt;[root] kubernetes_service.nginx -->
<g id="edge21" class="edge">
<title>[root] output.lb_ip&#45;&gt;[root] kubernetes_service.nginx</title>
<path fill="none" stroke="black" d="M652.24,-431.88C667.28,-422.72 685.97,-411.34 702.17,-401.48"/>
<polygon fill="black" stroke="black" points="704.14,-404.38 710.87,-396.19 700.51,-398.4 704.14,-404.38"/>
</g>
<!-- [root] meta.count&#45;boundary (EachMode fixup) -->
<g id="node19" class="node">
<title>[root] meta.count&#45;boundary (EachMode fixup)</title>
<ellipse fill="none" stroke="black" cx="468.11" cy="-522" rx="176.27" ry="18"/>
<text text-anchor="middle" x="468.11" y="-518.3" font-family="Times,serif" font-size="14.00">[root] meta.count&#45;boundary (EachMode fixup)</text>
</g>
<!-- [root] meta.count&#45;boundary (EachMode fixup)&#45;&gt;[root] azurerm_container_registry.acr -->
<g id="edge15" class="edge">
<title>[root] meta.count&#45;boundary (EachMode fixup)&#45;&gt;[root] azurerm_container_registry.acr</title>
<path fill="none" stroke="black" d="M423.32,-504.41C396.85,-494.61 363.12,-482.12 334.94,-471.68"/>
<polygon fill="black" stroke="black" points="335.81,-468.27 325.22,-468.08 333.38,-474.83 335.81,-468.27"/>
</g>
<!-- [root] meta.count&#45;boundary (EachMode fixup)&#45;&gt;[root] output.client_certificate -->
<g id="edge16" class="edge">
<title>[root] meta.count&#45;boundary (EachMode fixup)&#45;&gt;[root] output.client_certificate</title>
<path fill="none" stroke="black" d="M462.98,-503.85C451.86,-466.68 425.47,-378.44 412.13,-333.82"/>
<polygon fill="black" stroke="black" points="415.48,-332.81 409.26,-324.23 408.77,-334.82 415.48,-332.81"/>
</g>
<!-- [root] meta.count&#45;boundary (EachMode fixup)&#45;&gt;[root] output.kube_config -->
<g id="edge17" class="edge">
<title>[root] meta.count&#45;boundary (EachMode fixup)&#45;&gt;[root] output.kube_config</title>
<path fill="none" stroke="black" d="M472.09,-503.87C477.74,-479.56 488.14,-434.82 494.83,-406.01"/>
<polygon fill="black" stroke="black" points="498.26,-406.72 497.11,-396.19 491.44,-405.14 498.26,-406.72"/>
</g>
<!-- [root] meta.count&#45;boundary (EachMode fixup)&#45;&gt;[root] output.lb_ip -->
<g id="edge18" class="edge">
<title>[root] meta.count&#45;boundary (EachMode fixup)&#45;&gt;[root] output.lb_ip</title>
<path fill="none" stroke="black" d="M505.47,-504.23C526.86,-494.63 553.91,-482.5 576.78,-472.24"/>
<polygon fill="black" stroke="black" points="578.27,-475.4 585.96,-468.12 575.41,-469.02 578.27,-475.4"/>
</g>
<!-- [root] provider.azurerm (close) -->
<g id="node20" class="node">
<title>[root] provider.azurerm (close)</title>
<ellipse fill="none" stroke="black" cx="154.11" cy="-522" rx="120.48" ry="18"/>
<text text-anchor="middle" x="154.11" y="-518.3" font-family="Times,serif" font-size="14.00">[root] provider.azurerm (close)</text>
</g>
<!-- [root] provider.azurerm (close)&#45;&gt;[root] azurerm_container_registry.acr -->
<g id="edge22" class="edge">
<title>[root] provider.azurerm (close)&#45;&gt;[root] azurerm_container_registry.acr</title>
<path fill="none" stroke="black" d="M183.73,-504.41C200.33,-495.12 221.25,-483.4 239.27,-473.31"/>
<polygon fill="black" stroke="black" points="241.38,-476.14 248.39,-468.2 237.96,-470.03 241.38,-476.14"/>
</g>
<!-- [root] provider.azurerm (close)&#45;&gt;[root] azurerm_kubernetes_cluster.tbs_cluster -->
<g id="edge23" class="edge">
<title>[root] provider.azurerm (close)&#45;&gt;[root] azurerm_kubernetes_cluster.tbs_cluster</title>
<path fill="none" stroke="black" d="M155.79,-503.92C158.24,-485.21 164,-454.84 177.11,-432 244.61,-314.35 383.92,-224.69 453.57,-185.16"/>
<polygon fill="black" stroke="black" points="455.5,-188.09 462.51,-180.14 452.08,-181.98 455.5,-188.09"/>
</g>
<!-- [root] provider.kubernetes (close) -->
<g id="node21" class="node">
<title>[root] provider.kubernetes (close)</title>
<ellipse fill="none" stroke="black" cx="791.11" cy="-522" rx="129.18" ry="18"/>
<text text-anchor="middle" x="791.11" y="-518.3" font-family="Times,serif" font-size="14.00">[root] provider.kubernetes (close)</text>
</g>
<!-- [root] provider.kubernetes (close)&#45;&gt;[root] kubernetes_service.nginx -->
<g id="edge24" class="edge">
<title>[root] provider.kubernetes (close)&#45;&gt;[root] kubernetes_service.nginx</title>
<path fill="none" stroke="black" d="M784.83,-503.87C775.89,-479.46 759.4,-434.43 748.86,-405.64"/>
<polygon fill="black" stroke="black" points="752.13,-404.38 745.4,-396.19 745.55,-406.78 752.13,-404.38"/>
</g>
<!-- [root] provider.local (close) -->
<g id="node22" class="node">
<title>[root] provider.local (close)</title>
<ellipse fill="none" stroke="black" cx="945.11" cy="-378" rx="108.58" ry="18"/>
<text text-anchor="middle" x="945.11" y="-374.3" font-family="Times,serif" font-size="14.00">[root] provider.local (close)</text>
</g>
<!-- [root] provider.local (close)&#45;&gt;[root] local_file.kubeconfig -->
<g id="edge25" class="edge">
<title>[root] provider.local (close)&#45;&gt;[root] local_file.kubeconfig</title>
<path fill="none" stroke="black" d="M934.49,-359.87C919.23,-335.24 890.97,-289.64 873.15,-260.88"/>
<polygon fill="black" stroke="black" points="876,-258.85 867.76,-252.19 870.05,-262.53 876,-258.85"/>
</g>
<!-- [root] root -->
<g id="node23" class="node">
<title>[root] root</title>
<ellipse fill="none" stroke="black" cx="629.11" cy="-594" rx="47.39" ry="18"/>
<text text-anchor="middle" x="629.11" y="-590.3" font-family="Times,serif" font-size="14.00">[root] root</text>
</g>
<!-- [root] root&#45;&gt;[root] meta.count&#45;boundary (EachMode fixup) -->
<g id="edge26" class="edge">
<title>[root] root&#45;&gt;[root] meta.count&#45;boundary (EachMode fixup)</title>
<path fill="none" stroke="black" d="M599.2,-580C575.77,-569.81 542.73,-555.45 515.68,-543.68"/>
<polygon fill="black" stroke="black" points="516.96,-540.42 506.39,-539.64 514.16,-546.84 516.96,-540.42"/>
</g>
<!-- [root] root&#45;&gt;[root] provider.azurerm (close) -->
<g id="edge27" class="edge">
<title>[root] root&#45;&gt;[root] provider.azurerm (close)</title>
<path fill="none" stroke="black" d="M585.7,-586.6C509.23,-575.33 348.96,-551.71 246.7,-536.65"/>
<polygon fill="black" stroke="black" points="247.09,-533.16 236.68,-535.17 246.07,-540.09 247.09,-533.16"/>
</g>
<!-- [root] root&#45;&gt;[root] provider.kubernetes (close) -->
<g id="edge28" class="edge">
<title>[root] root&#45;&gt;[root] provider.kubernetes (close)</title>
<path fill="none" stroke="black" d="M659.2,-580C683.02,-569.71 716.71,-555.15 744.09,-543.32"/>
<polygon fill="black" stroke="black" points="745.69,-546.44 753.48,-539.26 742.91,-540.01 745.69,-546.44"/>
</g>
<!-- [root] root&#45;&gt;[root] provider.local (close) -->
<g id="edge29" class="edge">
<title>[root] root&#45;&gt;[root] provider.local (close)</title>
<path fill="none" stroke="black" d="M676.33,-591.39C752.07,-587.74 895.62,-576.12 929.11,-540 962.51,-503.97 957.74,-442.02 951.36,-406.38"/>
<polygon fill="black" stroke="black" points="954.73,-405.37 949.37,-396.23 947.86,-406.72 954.73,-405.37"/>
</g>
</g>
</svg>
